<svg id="svg" version="1.1" xmlns="http://www.w3.org/2000/svg" xmlns:xlink="http://www.w3.org/1999/xlink" width="400" height="182.03125" viewBox="0, 0, 400,182.03125"><g id="svgg"><path id="path0" d="M45.454 45.485 C 45.069 45.911,44.993 53.842,45.371 54.219 C 45.536 54.384,48.029 54.438,55.476 54.438 L 65.362 54.438 65.362 73.191 L 65.362 91.944 72.827 91.944 L 80.291 91.944 80.291 73.191 L 80.291 54.438 90.396 54.438 L 100.501 54.438 100.501 49.795 L 100.501 45.152 73.128 45.152 C 46.841 45.152,45.743 45.166,45.454 45.485 M137.187 45.335 C 137.125 45.435,136.675 45.517,136.186 45.517 C 135.697 45.517,135.246 45.599,135.184 45.699 C 135.122 45.799,134.626 45.881,134.081 45.881 C 133.536 45.881,133.091 45.963,133.091 46.063 C 133.091 46.163,132.773 46.245,132.385 46.245 C 131.996 46.245,131.586 46.356,131.473 46.493 C 131.360 46.629,131.076 46.704,130.842 46.659 C 130.600 46.613,130.292 46.702,130.128 46.866 C 129.969 47.025,129.588 47.155,129.280 47.155 C 128.973 47.155,128.721 47.237,128.721 47.337 C 128.721 47.437,128.521 47.519,128.277 47.519 C 128.032 47.519,127.782 47.601,127.720 47.701 C 127.658 47.802,127.455 47.883,127.269 47.883 C 127.083 47.883,126.903 47.945,126.870 48.020 C 126.837 48.095,126.400 48.359,125.899 48.607 C 125.398 48.855,124.948 49.102,124.898 49.155 C 124.750 49.313,123.275 50.250,123.175 50.250 C 123.051 50.250,122.059 51.130,121.465 51.768 C 121.200 52.051,120.737 52.543,120.436 52.860 C 119.689 53.648,118.525 55.261,118.525 55.509 C 118.525 55.621,118.443 55.712,118.343 55.712 C 118.243 55.712,118.161 55.876,118.161 56.076 C 118.161 56.277,118.079 56.441,117.979 56.441 C 117.879 56.441,117.797 56.645,117.797 56.896 C 117.797 57.146,117.715 57.351,117.615 57.351 C 117.515 57.351,117.433 57.592,117.433 57.886 C 117.433 58.181,117.351 58.472,117.251 58.534 C 117.151 58.596,117.069 58.963,117.069 59.349 C 117.069 59.749,116.971 60.084,116.841 60.127 C 116.471 60.251,116.430 76.155,116.798 76.891 C 116.947 77.190,117.069 77.708,117.069 78.043 C 117.069 78.379,117.151 78.653,117.251 78.653 C 117.351 78.653,117.433 78.939,117.433 79.290 C 117.433 79.640,117.515 79.927,117.615 79.927 C 117.715 79.927,117.797 80.064,117.797 80.231 C 117.797 80.679,118.976 82.743,119.612 83.409 C 119.915 83.727,120.164 84.063,120.164 84.156 C 120.164 84.393,122.276 86.482,122.516 86.482 C 122.624 86.482,123.016 86.768,123.388 87.119 C 123.759 87.469,124.169 87.756,124.298 87.756 C 124.428 87.756,124.533 87.838,124.533 87.938 C 124.533 88.038,124.697 88.120,124.898 88.120 C 125.098 88.120,125.262 88.193,125.262 88.281 C 125.262 88.369,125.405 88.487,125.580 88.543 C 125.756 88.598,126.145 88.784,126.445 88.956 C 127.323 89.457,127.606 89.577,127.912 89.577 C 128.071 89.577,128.324 89.700,128.474 89.850 C 128.624 90.000,128.900 90.123,129.087 90.123 C 129.275 90.123,129.478 90.205,129.540 90.305 C 129.602 90.405,129.894 90.487,130.188 90.487 C 130.483 90.487,130.724 90.569,130.724 90.669 C 130.724 90.769,131.047 90.851,131.441 90.851 C 131.836 90.851,132.209 90.933,132.271 91.033 C 132.333 91.133,132.743 91.215,133.182 91.215 C 133.620 91.215,134.030 91.297,134.092 91.397 C 134.154 91.497,134.523 91.579,134.911 91.579 C 135.300 91.579,135.669 91.661,135.731 91.761 C 135.804 91.881,141.559 91.944,152.400 91.944 L 168.958 91.944 168.958 87.489 C 168.958 83.272,168.939 83.025,168.606 82.847 C 168.372 82.721,163.574 82.658,154.313 82.658 C 145.141 82.658,140.373 82.596,140.373 82.476 C 140.373 82.376,140.086 82.294,139.736 82.294 C 139.386 82.294,139.099 82.212,139.099 82.112 C 139.099 82.012,138.862 81.930,138.572 81.930 C 138.272 81.930,138.000 81.812,137.941 81.657 C 137.883 81.507,137.710 81.384,137.557 81.384 C 137.404 81.384,137.278 81.302,137.278 81.202 C 137.278 81.102,137.165 81.020,137.028 81.020 C 136.781 81.020,135.516 79.862,134.832 79.008 C 134.264 78.301,133.091 75.998,133.091 75.592 C 133.091 75.387,132.968 75.097,132.817 74.946 C 132.664 74.793,132.544 74.348,132.544 73.932 L 132.544 73.191 150.751 73.191 L 168.958 73.191 168.958 68.766 C 168.958 65.568,168.897 64.282,168.739 64.124 C 168.572 63.957,164.281 63.905,150.533 63.905 L 132.544 63.905 132.550 63.314 C 132.553 62.988,132.676 62.563,132.823 62.368 C 132.970 62.174,133.091 61.831,133.091 61.605 C 133.091 61.380,133.173 61.145,133.273 61.083 C 133.373 61.021,133.455 60.812,133.455 60.617 C 133.455 60.423,133.517 60.264,133.594 60.264 C 133.670 60.264,133.869 59.957,134.035 59.581 C 134.201 59.206,134.528 58.659,134.761 58.366 C 135.516 57.416,137.068 56.077,137.415 56.077 C 137.540 56.077,137.642 55.995,137.642 55.894 C 137.642 55.794,137.806 55.712,138.006 55.712 C 138.207 55.712,138.371 55.640,138.371 55.551 C 138.371 55.462,138.596 55.344,138.871 55.289 C 140.837 54.893,141.386 54.749,141.475 54.605 C 141.534 54.510,147.350 54.420,155.222 54.394 L 168.867 54.347 168.916 50.000 C 168.950 46.946,168.903 45.579,168.757 45.403 C 168.497 45.090,137.380 45.023,137.187 45.335 M203.096 45.334 C 203.033 45.434,202.701 45.517,202.356 45.517 C 202.012 45.517,201.730 45.599,201.730 45.699 C 201.730 45.799,201.545 45.882,201.320 45.883 C 200.773 45.887,199.788 46.244,198.941 46.746 C 198.561 46.971,198.172 47.155,198.078 47.155 C 197.983 47.155,197.906 47.237,197.906 47.337 C 197.906 47.437,197.784 47.519,197.635 47.519 C 196.918 47.519,193.173 51.488,193.173 52.248 C 193.173 52.359,193.009 52.626,192.808 52.841 C 192.608 53.056,192.444 53.376,192.444 53.551 C 192.444 53.727,192.362 53.921,192.262 53.983 C 192.162 54.045,192.080 54.326,192.080 54.608 C 192.080 54.891,191.960 55.221,191.813 55.343 C 191.666 55.465,191.556 55.825,191.568 56.144 C 191.580 56.463,191.495 56.901,191.380 57.117 C 191.263 57.335,191.170 58.286,191.170 59.263 C 191.170 60.239,191.263 61.190,191.380 61.409 C 191.495 61.625,191.580 62.067,191.568 62.391 C 191.556 62.715,191.666 63.101,191.813 63.248 C 191.960 63.395,192.080 63.767,192.080 64.074 C 192.080 64.382,192.162 64.634,192.262 64.634 C 192.362 64.634,192.444 64.797,192.444 64.998 C 192.444 65.198,192.526 65.362,192.626 65.362 C 192.726 65.362,192.808 65.526,192.808 65.726 C 192.808 65.926,192.870 66.090,192.946 66.090 C 193.022 66.090,193.201 66.356,193.344 66.682 C 193.488 67.007,193.692 67.371,193.799 67.490 C 193.905 67.609,194.238 68.009,194.538 68.381 C 195.348 69.381,196.938 70.823,197.231 70.824 C 197.368 70.824,197.595 70.989,198.173 71.507 C 198.312 71.632,198.550 71.734,198.702 71.734 C 198.853 71.734,199.028 71.816,199.090 71.916 C 199.152 72.016,199.361 72.098,199.556 72.098 C 199.750 72.098,199.909 72.180,199.909 72.280 C 199.909 72.381,200.068 72.462,200.262 72.462 C 200.457 72.462,200.666 72.544,200.728 72.645 C 200.790 72.745,201.077 72.827,201.365 72.827 C 201.654 72.827,201.941 72.909,202.003 73.009 C 202.076 73.128,207.528 73.191,217.765 73.191 C 226.934 73.191,233.545 73.260,233.730 73.358 C 233.904 73.450,234.415 73.704,234.866 73.921 C 236.170 74.551,237.415 76.103,237.415 77.099 C 237.415 77.253,237.497 77.378,237.597 77.378 C 237.697 77.378,237.779 77.619,237.779 77.914 C 237.779 78.208,237.697 78.500,237.597 78.562 C 237.497 78.624,237.415 78.841,237.415 79.045 C 237.415 79.950,235.588 82.294,234.884 82.294 C 234.674 82.294,234.502 82.376,234.502 82.476 C 234.502 82.596,227.686 82.658,214.420 82.658 C 199.043 82.658,194.287 82.709,194.119 82.877 C 193.961 83.035,193.901 84.319,193.901 87.508 L 193.901 91.921 194.675 92.036 C 196.271 92.272,241.293 92.052,241.375 91.807 C 241.416 91.682,241.685 91.579,241.971 91.579 C 242.257 91.579,242.542 91.497,242.604 91.397 C 242.665 91.297,242.911 91.215,243.150 91.215 C 243.388 91.215,243.634 91.133,243.696 91.033 C 243.758 90.933,243.916 90.851,244.048 90.851 C 244.259 90.851,245.171 90.373,246.231 89.706 C 246.975 89.238,249.742 86.361,249.989 85.799 C 250.131 85.473,250.310 85.207,250.386 85.207 C 250.462 85.207,250.523 85.043,250.523 84.843 C 250.523 84.643,250.605 84.479,250.706 84.479 C 250.806 84.479,250.888 84.284,250.888 84.046 C 250.888 83.808,251.010 83.511,251.161 83.386 C 251.311 83.262,251.434 83.005,251.434 82.815 C 251.434 82.626,251.506 82.329,251.593 82.155 C 251.681 81.981,251.845 81.546,251.958 81.189 C 252.214 80.375,252.232 75.258,251.980 75.102 C 251.880 75.041,251.798 74.754,251.798 74.465 C 251.798 74.177,251.716 73.890,251.616 73.828 C 251.516 73.766,251.434 73.521,251.434 73.284 C 251.434 73.047,251.311 72.730,251.161 72.579 C 251.010 72.429,250.888 72.178,250.888 72.020 C 250.888 71.863,250.806 71.734,250.706 71.734 C 250.605 71.734,250.523 71.570,250.523 71.370 C 250.523 71.170,250.442 71.006,250.341 71.006 C 250.241 71.006,250.159 70.857,250.159 70.675 C 250.159 70.082,247.267 66.971,246.239 66.458 C 245.942 66.309,245.396 65.994,245.026 65.758 C 244.657 65.521,244.276 65.376,244.181 65.435 C 244.085 65.494,243.960 65.419,243.903 65.270 C 243.845 65.120,243.672 64.998,243.517 64.998 C 243.244 64.998,243.052 64.923,242.196 64.480 C 241.972 64.364,241.465 64.269,241.069 64.269 C 240.673 64.269,240.299 64.188,240.237 64.087 C 240.163 63.968,234.776 63.905,224.670 63.905 C 214.564 63.905,209.177 63.842,209.103 63.723 C 209.041 63.623,208.832 63.541,208.637 63.541 C 208.443 63.541,208.284 63.459,208.284 63.359 C 208.284 63.259,208.175 63.177,208.041 63.177 C 207.742 63.177,206.939 62.294,206.457 61.437 C 206.063 60.735,205.919 57.533,206.281 57.533 C 206.381 57.533,206.463 57.399,206.463 57.236 C 206.463 56.758,207.925 55.439,209.030 54.918 L 210.049 54.438 229.743 54.438 L 249.437 54.438 249.389 49.841 L 249.340 45.244 226.274 45.197 C 210.985 45.167,203.170 45.213,203.096 45.334 M305.508 45.335 C 305.357 45.432,305.014 45.512,304.744 45.514 C 304.475 45.515,304.204 45.599,304.142 45.699 C 304.080 45.799,303.793 45.881,303.505 45.881 C 303.216 45.881,302.929 45.963,302.868 46.063 C 302.806 46.163,302.555 46.245,302.311 46.245 C 302.029 46.245,301.866 46.349,301.866 46.529 C 301.866 46.685,301.784 46.762,301.684 46.700 C 301.502 46.587,300.371 47.128,300.258 47.383 C 300.225 47.458,300.102 47.521,299.985 47.523 C 299.719 47.527,298.716 48.321,297.922 49.158 C 296.370 50.791,295.858 51.407,295.858 51.638 C 295.858 51.776,295.776 51.889,295.676 51.889 C 295.576 51.889,295.494 52.015,295.494 52.170 C 295.494 52.324,295.330 52.626,295.130 52.841 C 294.929 53.056,294.766 53.376,294.766 53.551 C 294.766 53.727,294.684 53.921,294.584 53.983 C 294.483 54.045,294.401 54.377,294.401 54.722 C 294.401 55.066,294.320 55.348,294.219 55.348 C 294.119 55.348,294.035 55.737,294.032 56.213 C 294.028 56.689,293.905 57.237,293.758 57.431 C 293.399 57.907,293.403 60.542,293.764 61.174 C 293.907 61.425,294.027 62.019,294.031 62.494 C 294.034 62.970,294.119 63.359,294.219 63.359 C 294.320 63.359,294.401 63.600,294.401 63.895 C 294.401 64.189,294.483 64.481,294.584 64.543 C 294.684 64.604,294.766 64.814,294.766 65.008 C 294.766 65.203,294.832 65.362,294.914 65.362 C 294.995 65.362,295.174 65.649,295.312 65.999 C 295.449 66.350,295.628 66.636,295.710 66.636 C 295.791 66.636,295.858 66.781,295.858 66.957 C 295.858 67.134,296.063 67.432,296.313 67.620 C 296.563 67.808,296.768 68.038,296.768 68.131 C 296.768 68.403,298.363 70.011,298.910 70.292 C 299.184 70.433,299.531 70.681,299.681 70.843 C 299.949 71.132,301.234 71.831,302.321 72.280 C 302.622 72.404,303.010 72.577,303.184 72.666 C 303.358 72.754,303.747 72.827,304.049 72.827 C 304.350 72.827,304.597 72.909,304.597 73.009 C 304.597 73.129,309.939 73.191,320.257 73.191 C 329.823 73.191,336.041 73.258,336.234 73.364 C 336.408 73.459,336.837 73.664,337.187 73.819 C 338.362 74.338,339.736 75.901,339.736 76.718 C 339.736 76.969,339.818 77.225,339.918 77.287 C 340.018 77.349,340.100 77.718,340.100 78.107 C 340.100 78.495,340.018 78.864,339.918 78.926 C 339.818 78.988,339.736 79.238,339.736 79.483 C 339.736 79.727,339.660 79.927,339.566 79.927 C 339.473 79.927,339.348 80.080,339.288 80.267 C 339.128 80.772,337.632 82.294,337.296 82.294 C 337.136 82.294,337.005 82.376,337.005 82.476 C 337.005 82.596,330.149 82.658,316.802 82.658 C 297.014 82.658,296.595 82.665,296.411 83.010 C 296.296 83.224,296.222 85.017,296.222 87.567 L 296.222 91.771 296.717 91.959 C 297.495 92.254,343.470 92.106,343.769 91.807 C 343.894 91.682,344.180 91.579,344.404 91.579 C 344.629 91.579,344.863 91.497,344.925 91.397 C 344.987 91.297,345.233 91.215,345.471 91.215 C 345.710 91.215,345.955 91.133,346.017 91.033 C 346.079 90.933,346.330 90.851,346.574 90.851 C 346.819 90.851,347.019 90.769,347.019 90.669 C 347.019 90.569,347.113 90.487,347.229 90.487 C 347.345 90.487,347.708 90.282,348.036 90.032 C 348.364 89.782,348.683 89.577,348.745 89.577 C 348.806 89.577,349.214 89.228,349.651 88.803 C 350.087 88.377,350.596 87.894,350.780 87.728 C 351.791 86.821,352.845 85.299,352.845 84.746 C 352.845 84.599,352.912 84.479,352.993 84.479 C 353.194 84.479,353.755 83.276,353.755 82.845 C 353.755 82.654,353.837 82.447,353.937 82.385 C 354.037 82.323,354.119 82.067,354.119 81.816 C 354.119 81.565,354.208 81.194,354.316 80.992 C 354.797 80.093,354.473 74.316,353.904 73.655 C 353.822 73.560,353.755 73.347,353.755 73.182 C 353.755 72.826,353.258 71.786,353.015 71.636 C 352.922 71.578,352.845 71.372,352.845 71.177 C 352.845 70.983,352.763 70.824,352.663 70.824 C 352.563 70.824,352.481 70.702,352.481 70.553 C 352.481 70.234,352.156 69.805,350.979 68.567 C 350.503 68.066,350.114 67.609,350.114 67.550 C 350.114 67.491,349.871 67.300,349.574 67.124 C 349.277 66.949,348.929 66.706,348.800 66.584 C 348.672 66.463,348.320 66.240,348.020 66.090 C 347.720 65.940,347.433 65.777,347.383 65.726 C 347.140 65.483,346.039 64.998,345.729 64.998 C 345.537 64.998,345.380 64.936,345.380 64.860 C 345.380 64.655,344.022 64.269,343.300 64.269 C 342.954 64.269,342.620 64.188,342.558 64.087 C 342.484 63.968,337.094 63.905,326.981 63.905 C 316.792 63.905,311.516 63.843,311.516 63.723 C 311.516 63.623,311.402 63.541,311.263 63.541 C 310.546 63.541,309.465 62.577,308.830 61.372 C 308.390 60.536,308.227 57.856,308.603 57.624 C 308.703 57.562,308.785 57.391,308.785 57.244 C 308.785 56.808,310.258 55.477,311.337 54.939 L 312.340 54.438 332.010 54.438 C 347.066 54.438,351.731 54.387,351.898 54.219 C 352.267 53.850,352.200 46.177,351.822 45.601 L 351.528 45.152 328.655 45.155 C 314.201 45.157,305.680 45.223,305.508 45.335 M181.813 101.907 C 181.736 101.985,177.890 102.105,173.267 102.174 C 160.248 102.368,151.617 102.695,145.471 103.227 C 144.320 103.326,142.379 103.409,141.158 103.411 C 139.878 103.412,138.891 103.491,138.826 103.596 C 138.757 103.708,137.280 103.778,135.002 103.778 C 132.725 103.778,131.248 103.848,131.179 103.960 C 131.111 104.070,129.793 104.142,127.836 104.142 C 126.036 104.142,124.530 104.219,124.433 104.315 C 124.338 104.410,122.908 104.531,121.256 104.584 C 116.617 104.731,107.777 105.302,105.872 105.578 C 105.171 105.679,103.938 105.766,103.132 105.771 C 102.325 105.776,101.588 105.856,101.493 105.948 C 101.398 106.040,100.419 106.161,99.317 106.216 C 95.583 106.402,94.038 106.542,93.864 106.708 C 93.769 106.799,92.741 106.873,91.579 106.873 C 90.418 106.873,89.390 106.950,89.294 107.044 C 89.199 107.138,88.179 107.259,87.028 107.311 C 85.876 107.364,83.992 107.490,82.840 107.591 C 81.689 107.692,79.828 107.838,78.706 107.916 C 77.503 108.000,76.573 108.151,76.440 108.285 C 76.288 108.436,75.594 108.512,74.348 108.512 C 73.302 108.512,72.435 108.591,72.371 108.694 C 72.310 108.794,71.502 108.876,70.576 108.876 C 69.651 108.876,68.816 108.952,68.721 109.046 C 68.626 109.139,67.770 109.259,66.818 109.312 C 64.121 109.461,62.813 109.622,62.813 109.802 C 62.813 109.893,62.039 109.968,61.094 109.968 C 60.145 109.968,59.325 110.050,59.263 110.150 C 59.201 110.250,58.475 110.332,57.650 110.332 C 56.803 110.332,56.062 110.419,55.949 110.532 C 55.838 110.643,55.136 110.730,54.366 110.727 C 53.402 110.723,52.903 110.800,52.722 110.982 C 52.536 111.167,52.013 111.243,50.911 111.243 C 50.059 111.243,49.311 111.325,49.249 111.425 C 49.187 111.525,48.532 111.607,47.794 111.607 C 46.436 111.607,45.958 111.905,46.335 112.515 C 46.488 112.764,54.740 112.765,54.893 112.517 C 54.963 112.404,56.643 112.335,59.328 112.335 C 61.868 112.335,63.723 112.262,63.826 112.159 C 63.926 112.059,66.050 111.947,68.733 111.901 C 74.553 111.800,81.454 111.550,89.941 111.135 C 93.496 110.961,98.104 110.788,100.182 110.750 C 102.431 110.710,103.960 110.612,103.960 110.507 C 103.960 110.398,106.756 110.332,111.388 110.332 C 116.002 110.332,118.884 110.265,118.995 110.154 C 119.104 110.044,122.603 109.939,127.998 109.881 C 132.852 109.830,142.599 109.703,149.659 109.600 C 173.916 109.246,262.585 109.395,262.980 109.790 C 263.092 109.901,266.482 109.968,272.033 109.968 C 277.753 109.968,280.947 110.033,281.020 110.150 C 281.092 110.267,283.740 110.332,288.368 110.332 C 292.601 110.332,295.675 110.403,295.776 110.502 C 295.871 110.596,297.670 110.708,299.772 110.752 C 301.875 110.796,306.504 110.972,310.059 111.142 C 313.614 111.312,318.776 111.533,321.529 111.632 C 333.849 112.078,336.442 112.163,340.462 112.253 C 342.822 112.305,344.816 112.427,344.913 112.524 C 345.234 112.844,353.565 112.749,353.690 112.424 C 353.914 111.840,353.407 111.607,351.912 111.607 C 351.077 111.607,350.478 111.531,350.478 111.425 C 350.478 111.318,349.867 111.243,349.008 111.243 C 347.981 111.243,347.461 111.165,347.280 110.984 C 347.098 110.802,346.575 110.725,345.523 110.725 C 344.612 110.725,343.998 110.648,343.959 110.529 C 343.918 110.408,343.272 110.332,342.281 110.332 C 341.394 110.332,340.617 110.250,340.555 110.150 C 340.493 110.050,339.715 109.968,338.826 109.968 C 337.936 109.968,337.158 109.886,337.096 109.786 C 337.034 109.686,336.461 109.604,335.822 109.604 C 335.183 109.604,334.609 109.522,334.547 109.422 C 334.485 109.322,333.748 109.240,332.909 109.240 C 332.069 109.240,331.332 109.158,331.270 109.058 C 331.208 108.957,330.392 108.876,329.449 108.876 C 328.507 108.876,327.691 108.794,327.629 108.694 C 327.565 108.590,326.661 108.512,325.539 108.512 C 324.120 108.512,323.541 108.447,323.487 108.284 C 323.434 108.126,322.830 108.040,321.514 108.003 C 320.471 107.974,319.454 107.874,319.254 107.780 C 318.910 107.620,318.062 107.557,312.972 107.315 C 311.821 107.260,310.801 107.138,310.706 107.044 C 310.610 106.950,309.525 106.873,308.293 106.873 C 307.061 106.873,306.054 106.799,306.054 106.709 C 306.054 106.544,304.482 106.403,300.592 106.217 C 299.440 106.161,298.420 106.041,298.325 105.948 C 298.230 105.856,297.533 105.776,296.777 105.771 C 296.021 105.766,294.829 105.680,294.128 105.579 C 292.163 105.297,283.166 104.720,278.607 104.584 C 276.798 104.530,275.467 104.416,275.467 104.316 C 275.467 104.212,274.122 104.142,272.109 104.142 C 270.067 104.142,268.707 104.071,268.639 103.960 C 268.570 103.848,267.090 103.778,264.805 103.778 C 262.445 103.778,261.083 103.711,261.083 103.596 C 261.083 103.483,260.124 103.412,258.580 103.409 C 257.203 103.406,255.257 103.322,254.256 103.222 C 245.571 102.353,182.511 101.209,181.813 101.907 M260.264 122.713 C 260.202 122.813,259.874 122.895,259.536 122.895 C 259.197 122.895,258.869 122.977,258.807 123.077 C 258.746 123.177,258.536 123.259,258.342 123.259 C 258.147 123.259,257.988 123.341,257.988 123.441 C 257.988 123.541,257.886 123.625,257.761 123.627 C 257.476 123.633,255.621 125.501,255.621 125.783 C 255.621 125.897,255.539 125.990,255.439 125.990 C 255.339 125.990,255.257 126.195,255.257 126.445 C 255.257 126.695,255.175 126.900,255.075 126.900 C 254.963 126.900,254.893 127.780,254.893 129.176 C 254.893 130.572,254.963 131.452,255.075 131.452 C 255.175 131.452,255.257 131.588,255.257 131.753 C 255.257 132.855,258.428 135.457,259.771 135.457 C 259.980 135.457,260.202 135.539,260.264 135.640 C 260.402 135.862,263.754 135.885,263.891 135.663 C 263.944 135.576,264.318 135.453,264.721 135.388 C 265.123 135.324,265.453 135.190,265.453 135.091 C 265.453 134.992,265.617 134.911,265.817 134.911 C 266.017 134.911,266.181 134.829,266.181 134.729 C 266.181 134.629,266.296 134.547,266.436 134.547 C 266.747 134.547,267.889 133.429,268.315 132.707 C 268.486 132.417,268.691 132.180,268.769 132.180 C 268.848 132.180,268.912 131.975,268.912 131.725 C 268.912 131.475,268.994 131.270,269.094 131.270 C 269.322 131.270,269.341 127.388,269.115 126.943 C 269.027 126.769,268.843 126.387,268.706 126.094 C 268.374 125.383,266.757 123.623,266.436 123.623 C 266.296 123.623,266.181 123.541,266.181 123.441 C 266.181 123.341,266.022 123.259,265.828 123.259 C 265.633 123.259,265.424 123.177,265.362 123.077 C 265.300 122.977,264.972 122.895,264.634 122.895 C 264.295 122.895,263.967 122.813,263.905 122.713 C 263.843 122.612,263.027 122.531,262.085 122.531 C 261.142 122.531,260.326 122.612,260.264 122.713 M59.215 129.131 L 59.263 135.366 61.129 135.418 L 62.995 135.470 62.995 129.183 L 62.995 122.895 61.081 122.895 L 59.167 122.895 59.215 129.131 M75.601 129.131 L 75.649 135.366 77.560 135.366 L 79.472 135.366 79.563 132.282 L 79.654 129.197 80.291 129.977 C 81.396 131.328,81.513 131.452,81.693 131.452 C 81.789 131.452,81.985 131.677,82.127 131.953 C 82.269 132.228,82.549 132.628,82.749 132.842 C 82.949 133.056,83.359 133.525,83.660 133.885 C 83.960 134.245,84.289 134.541,84.390 134.543 C 84.492 134.545,84.655 134.731,84.754 134.957 C 84.923 135.340,85.045 135.366,86.664 135.366 L 88.393 135.366 88.441 129.131 L 88.489 122.895 86.575 122.895 L 84.661 122.895 84.661 125.893 C 84.661 128.484,84.624 128.877,84.388 128.787 C 84.238 128.729,84.115 128.572,84.115 128.438 C 84.115 128.304,83.418 127.477,82.567 126.601 C 81.716 125.724,81.020 124.943,81.020 124.864 C 81.020 124.786,80.636 124.311,80.168 123.808 L 79.316 122.895 77.435 122.895 L 75.553 122.895 75.601 129.131 M99.961 123.247 C 99.687 123.759,99.730 124.834,100.050 125.453 L 100.328 125.990 102.235 125.990 L 104.142 125.990 104.142 130.613 C 104.142 135.940,103.933 135.457,106.236 135.457 C 108.538 135.457,108.330 135.940,108.330 130.613 L 108.330 125.990 110.404 125.990 C 112.800 125.990,112.699 126.071,112.699 124.154 L 112.699 122.895 106.424 122.895 C 100.407 122.895,100.142 122.909,99.961 123.247 M124.030 129.131 L 124.078 135.366 128.903 135.366 L 133.728 135.366 133.782 134.005 C 133.855 132.174,133.866 132.180,130.598 132.180 L 127.993 132.180 127.993 131.452 L 127.993 130.724 130.372 130.724 C 133.408 130.724,133.455 130.699,133.455 129.094 C 133.455 127.154,133.627 127.264,130.613 127.264 L 127.993 127.264 127.993 126.627 L 127.993 125.990 130.687 125.990 C 133.878 125.990,133.819 126.023,133.819 124.224 L 133.819 122.895 128.901 122.895 L 123.982 122.895 124.030 129.131 M145.878 129.131 L 145.926 135.366 147.474 135.420 C 149.972 135.507,149.821 135.660,149.881 132.972 L 149.932 130.674 150.543 131.245 C 150.879 131.559,151.232 131.816,151.327 131.816 C 151.423 131.816,151.454 131.891,151.397 131.984 C 151.340 132.076,151.418 132.275,151.569 132.426 C 151.720 132.577,151.843 132.870,151.843 133.078 C 151.843 133.285,151.925 133.455,152.025 133.455 C 152.126 133.455,152.208 133.579,152.208 133.730 C 152.208 133.882,152.302 134.189,152.418 134.413 C 152.534 134.637,152.686 134.943,152.756 135.093 C 152.890 135.380,155.846 135.588,156.714 135.371 C 157.143 135.263,157.302 134.497,156.941 134.274 C 156.841 134.212,156.759 134.002,156.759 133.808 C 156.759 133.614,156.677 133.455,156.577 133.455 C 156.477 133.455,156.395 133.291,156.395 133.091 C 156.395 132.890,156.313 132.726,156.213 132.726 C 156.113 132.726,156.031 132.563,156.031 132.362 C 156.031 132.162,155.949 131.998,155.849 131.998 C 155.749 131.998,155.667 131.793,155.667 131.543 C 155.667 131.293,155.585 131.088,155.485 131.088 C 155.385 131.088,155.303 130.961,155.303 130.807 C 155.303 130.652,155.097 130.304,154.846 130.033 C 154.538 129.701,154.464 129.517,154.619 129.467 C 155.415 129.208,156.203 127.012,155.841 126.061 C 155.745 125.808,155.667 125.410,155.667 125.174 C 155.667 124.732,154.634 123.536,153.894 123.122 C 153.604 122.960,152.383 122.895,149.659 122.895 L 145.830 122.895 145.878 129.131 M168.229 129.176 L 168.229 135.457 170.112 135.457 C 172.469 135.457,172.416 135.539,172.420 131.944 L 172.423 129.358 172.971 129.995 C 173.273 130.346,173.880 131.042,174.320 131.543 C 174.760 132.044,175.352 132.738,175.635 133.086 C 175.918 133.434,176.530 134.109,176.996 134.588 L 177.843 135.457 179.408 135.457 L 180.974 135.457 180.974 129.176 L 180.974 122.895 179.062 122.895 L 177.151 122.895 177.151 125.809 L 177.151 128.723 176.331 127.892 C 175.881 127.435,175.512 127.026,175.512 126.984 C 175.512 126.912,174.849 126.158,173.646 124.863 C 173.371 124.566,173.145 124.291,173.145 124.252 C 173.145 124.213,172.879 123.892,172.555 123.538 L 171.964 122.895 170.097 122.895 L 168.229 122.895 168.229 129.176 M196.850 123.113 C 196.730 123.234,196.632 123.520,196.632 123.751 C 196.632 123.981,196.550 124.169,196.450 124.169 C 196.350 124.169,196.268 124.296,196.268 124.451 C 196.268 124.606,196.104 125.072,195.904 125.487 C 195.703 125.901,195.539 126.389,195.539 126.570 C 195.539 126.752,195.457 126.900,195.357 126.900 C 195.257 126.900,195.175 127.100,195.175 127.345 C 195.175 127.589,195.093 127.840,194.993 127.902 C 194.893 127.964,194.811 128.166,194.811 128.352 C 194.811 128.538,194.726 128.719,194.621 128.754 C 194.517 128.789,194.407 129.049,194.376 129.333 C 194.346 129.616,194.247 129.902,194.156 129.967 C 194.064 130.033,193.882 130.414,193.751 130.815 C 193.429 131.797,193.292 132.135,192.834 133.062 C 192.620 133.497,192.444 134.044,192.444 134.276 C 192.444 134.509,192.342 134.733,192.217 134.775 C 191.354 135.066,192.574 135.457,194.342 135.457 C 196.312 135.457,196.632 135.338,196.632 134.602 C 196.632 134.371,196.714 134.183,196.814 134.183 C 196.914 134.183,196.996 133.978,196.996 133.728 L 196.996 133.273 199.318 133.273 L 201.641 133.273 201.882 134.046 C 202.295 135.375,202.451 135.458,204.534 135.455 C 206.613 135.452,207.045 135.308,206.691 134.737 C 206.566 134.535,206.463 134.281,206.463 134.171 C 206.463 134.062,206.177 133.376,205.826 132.648 C 205.476 131.919,205.189 131.188,205.189 131.023 C 205.189 130.858,205.107 130.724,205.007 130.724 C 204.907 130.724,204.825 130.560,204.825 130.360 C 204.825 130.159,204.743 129.995,204.643 129.995 C 204.543 129.995,204.461 129.843,204.461 129.657 C 204.461 129.471,204.221 128.836,203.928 128.246 C 203.635 127.656,203.251 126.825,203.074 126.400 C 202.897 125.974,202.686 125.626,202.605 125.626 C 202.524 125.626,202.458 125.467,202.458 125.272 C 202.458 125.078,202.376 124.868,202.276 124.807 C 202.176 124.745,202.094 124.494,202.094 124.250 C 202.094 124.005,202.012 123.805,201.912 123.805 C 201.812 123.805,201.730 123.600,201.730 123.350 L 201.730 122.895 199.399 122.895 C 197.829 122.895,196.997 122.966,196.850 123.113 M214.656 124.222 C 214.656 125.971,214.682 125.990,217.060 125.990 L 219.026 125.990 219.026 130.613 C 219.026 135.940,218.817 135.457,221.120 135.457 C 223.422 135.457,223.213 135.940,223.213 130.613 L 223.213 125.990 225.194 125.990 C 227.580 125.990,227.621 125.959,227.546 124.231 L 227.492 122.986 221.074 122.938 L 214.656 122.890 214.656 124.222 M238.914 129.125 L 238.962 135.366 240.601 135.420 C 241.502 135.449,242.425 135.427,242.651 135.370 L 243.064 135.267 243.016 129.127 L 242.968 122.986 240.917 122.934 L 238.866 122.883 238.914 129.125 M281.111 129.066 C 281.111 136.157,280.881 135.457,283.204 135.457 C 285.460 135.457,285.298 135.698,285.298 132.343 C 285.298 129.131,285.359 129.001,286.258 130.297 C 286.581 130.764,287.258 131.565,287.762 132.078 C 288.265 132.591,288.921 133.335,289.218 133.733 C 290.404 135.322,290.643 135.457,292.248 135.457 C 294.596 135.457,294.401 136.016,294.401 129.276 C 294.401 122.175,294.660 122.895,292.106 122.895 L 290.032 122.895 290.032 125.752 L 290.032 128.610 289.440 127.958 C 289.115 127.599,288.507 126.907,288.091 126.420 C 287.674 125.933,287.046 125.225,286.694 124.845 C 286.343 124.466,285.830 123.872,285.553 123.525 L 285.051 122.895 283.081 122.895 L 281.111 122.895 281.111 129.066 M309.847 123.213 C 309.699 123.389,309.467 123.901,309.332 124.351 C 309.196 124.802,309.018 125.249,308.935 125.344 C 308.852 125.439,308.785 125.705,308.785 125.935 C 308.785 126.166,308.703 126.354,308.603 126.354 C 308.503 126.354,308.421 126.559,308.421 126.809 C 308.421 127.060,308.339 127.264,308.239 127.264 C 308.138 127.264,308.056 127.388,308.056 127.540 C 308.056 127.692,307.982 127.958,307.890 128.132 C 307.439 128.989,306.782 130.582,306.782 130.820 C 306.782 130.967,306.700 131.088,306.600 131.088 C 306.500 131.088,306.418 131.288,306.418 131.532 C 306.418 131.777,306.336 132.027,306.236 132.089 C 306.136 132.151,306.054 132.402,306.054 132.646 C 306.054 132.891,305.972 133.091,305.872 133.091 C 305.772 133.091,305.690 133.279,305.690 133.509 C 305.690 133.740,305.601 134.016,305.493 134.124 C 305.385 134.232,305.324 134.556,305.357 134.844 L 305.416 135.366 307.055 135.420 C 309.047 135.485,309.513 135.388,309.513 134.908 C 309.513 134.709,309.595 134.547,309.695 134.547 C 309.795 134.547,309.877 134.359,309.877 134.128 C 309.877 133.376,310.184 133.273,312.432 133.273 L 314.549 133.273 314.783 133.773 C 314.912 134.049,315.092 134.397,315.183 134.547 C 315.275 134.697,315.398 134.966,315.458 135.145 C 315.555 135.434,315.785 135.463,317.592 135.418 C 320.006 135.357,320.101 135.237,319.193 133.386 C 318.892 132.773,318.501 131.923,318.323 131.497 C 318.145 131.072,317.934 130.724,317.853 130.724 C 317.772 130.724,317.706 130.559,317.706 130.357 C 317.706 130.155,317.624 129.828,317.524 129.629 C 317.424 129.430,317.260 129.104,317.160 128.906 C 317.060 128.707,316.978 128.420,316.978 128.268 C 316.978 128.117,316.896 127.993,316.796 127.993 C 316.695 127.993,316.614 127.872,316.614 127.725 C 316.614 127.578,316.450 127.166,316.249 126.809 C 316.049 126.453,315.885 126.049,315.885 125.913 C 315.885 125.776,315.762 125.618,315.612 125.560 C 315.462 125.502,315.339 125.248,315.339 124.994 C 315.339 124.741,315.257 124.533,315.157 124.533 C 315.057 124.533,314.975 124.329,314.975 124.078 C 314.975 123.828,314.893 123.623,314.793 123.623 C 314.693 123.623,314.611 123.459,314.611 123.259 C 314.611 122.737,310.284 122.695,309.847 123.213 M330.633 129.082 L 330.633 135.268 331.042 135.369 C 331.268 135.424,333.541 135.446,336.095 135.418 L 340.737 135.366 340.790 133.887 C 340.854 132.087,341.056 132.186,337.324 132.183 L 334.638 132.180 334.638 127.538 L 334.638 122.895 332.635 122.895 L 330.633 122.895 330.633 129.082 M151.583 126.250 C 151.979 126.645,151.915 127.264,151.479 127.264 C 151.279 127.264,151.115 127.346,151.115 127.447 C 151.115 127.547,150.828 127.629,150.478 127.629 C 149.844 127.629,149.841 127.624,149.841 126.809 L 149.841 125.990 150.582 125.990 C 150.990 125.990,151.440 126.107,151.583 126.250 M262.995 126.172 C 263.057 126.272,263.267 126.354,263.461 126.354 C 263.655 126.354,263.814 126.436,263.814 126.536 C 263.814 126.636,263.902 126.718,264.009 126.718 C 264.239 126.718,264.544 127.030,264.861 127.588 C 265.483 128.681,264.872 131.452,264.009 131.452 C 263.902 131.452,263.814 131.513,263.813 131.589 C 263.810 131.851,262.825 132.180,262.046 132.180 C 260.828 132.180,259.081 130.869,259.081 129.955 C 259.081 129.717,258.986 129.427,258.870 129.311 C 258.725 129.166,258.717 129.027,258.845 128.865 C 258.947 128.736,259.081 128.416,259.143 128.156 C 259.287 127.553,260.375 126.354,260.778 126.354 C 260.946 126.354,261.083 126.272,261.083 126.172 C 261.083 126.072,261.488 125.990,261.983 125.990 C 262.478 125.990,262.933 126.072,262.995 126.172 M199.523 128.203 C 199.710 128.320,199.824 128.551,199.779 128.722 C 199.735 128.892,199.828 129.160,199.986 129.318 C 200.469 129.801,200.316 129.995,199.454 129.995 C 198.701 129.995,198.635 129.958,198.635 129.540 C 198.635 129.290,198.716 129.085,198.817 129.085 C 198.917 129.085,198.999 128.839,198.999 128.539 C 198.999 127.930,199.041 127.902,199.523 128.203 M312.771 128.772 C 313.353 129.816,313.289 129.995,312.335 129.995 C 311.526 129.995,311.151 129.514,311.698 129.176 C 311.798 129.114,311.880 128.921,311.880 128.747 C 311.880 128.471,312.244 127.924,312.349 128.041 C 312.370 128.065,312.560 128.393,312.771 128.772 " stroke="none" fill="#343484" fill-rule="evenodd"></path><path id="path1" d="M270.278 59.757 C 270.077 59.867,269.791 60.027,269.640 60.112 C 269.490 60.197,269.244 60.314,269.094 60.373 C 268.293 60.685,267.864 60.950,267.428 61.402 C 267.163 61.677,266.888 61.903,266.818 61.903 C 266.696 61.903,266.077 62.534,265.407 63.343 C 265.232 63.554,265.089 63.849,265.089 63.998 C 265.089 64.148,265.007 64.269,264.907 64.269 C 264.807 64.269,264.725 64.386,264.725 64.528 C 264.725 64.670,264.588 65.059,264.421 65.393 C 264.254 65.726,264.049 66.141,263.966 66.315 C 263.762 66.740,263.771 71.686,263.976 71.812 C 264.065 71.867,264.191 72.200,264.257 72.551 C 264.323 72.903,264.455 73.191,264.551 73.191 C 264.646 73.191,264.725 73.355,264.725 73.555 C 264.725 73.755,264.787 73.919,264.862 73.919 C 264.938 73.919,265.116 74.182,265.259 74.503 C 265.500 75.049,266.584 76.286,266.821 76.286 C 266.879 76.286,267.107 76.486,267.328 76.731 C 267.820 77.276,268.979 77.924,269.464 77.924 C 269.661 77.924,269.822 78.006,269.822 78.107 C 269.822 78.207,270.109 78.289,270.460 78.289 C 270.810 78.289,271.097 78.371,271.097 78.471 C 271.097 78.582,271.973 78.653,273.362 78.653 C 274.676 78.653,275.674 78.576,275.740 78.471 C 275.802 78.371,276.134 78.289,276.479 78.289 C 276.823 78.289,277.105 78.207,277.105 78.107 C 277.105 78.006,277.225 77.924,277.372 77.924 C 278.393 77.924,281.300 75.348,281.997 73.825 C 282.134 73.526,282.318 73.139,282.406 72.966 C 282.495 72.792,282.567 72.444,282.567 72.192 C 282.567 71.940,282.649 71.734,282.749 71.734 C 282.862 71.734,282.931 70.736,282.931 69.105 C 282.931 67.549,282.857 66.430,282.749 66.363 C 282.649 66.301,282.567 66.010,282.567 65.715 C 282.567 65.421,282.485 65.180,282.385 65.180 C 282.285 65.180,282.203 65.062,282.203 64.917 C 282.203 63.874,278.838 60.446,277.815 60.446 C 277.711 60.446,277.502 60.323,277.352 60.173 C 277.202 60.023,276.926 59.900,276.739 59.900 C 276.552 59.900,276.348 59.818,276.286 59.718 C 276.129 59.464,270.746 59.500,270.278 59.757 " stroke="none" fill="#f4941c" fill-rule="evenodd"></path><path id="path2" d="" stroke="none" fill="#646488" fill-rule="evenodd"></path><path id="path3" d="" stroke="none" fill="#646488" fill-rule="evenodd"></path><path id="path4" d="" stroke="none" fill="#646488" fill-rule="evenodd"></path></g></svg>