<?xml version="1.0" standalone="no"?>
<!DOCTYPE svg PUBLIC "-//W3C//DTD SVG 20010904//EN"
 "http://www.w3.org/TR/2001/REC-SVG-20010904/DTD/svg10.dtd">
<svg version="1.0" xmlns="http://www.w3.org/2000/svg"
 width="1024.000000pt" height="466.000000pt" viewBox="0 0 1024.000000 466.000000"
 preserveAspectRatio="xMidYMid meet">

<g transform="translate(0.000000,466.000000) scale(0.100000,-0.100000)"
fill="#000000" stroke="none">
<path d="M1180 3385 l0 -105 253 -2 252 -3 3 -477 2 -478 175 0 175 0 0 480 0
480 260 0 260 0 0 105 0 105 -690 0 -690 0 0 -105z"/>
<path d="M3485 3479 c-280 -40 -453 -185 -485 -404 -12 -88 -12 -247 0 -343
25 -190 160 -324 390 -388 57 -16 119 -18 493 -22 l427 -3 0 100 0 99 -357 4
c-349 3 -359 4 -408 26 -27 13 -67 39 -88 60 -38 37 -77 122 -77 167 l0 25
465 0 465 0 0 105 0 105 -465 0 -465 0 0 23 c0 40 29 111 61 150 17 21 54 50
83 65 l51 27 368 3 367 3 0 104 0 105 -382 -1 c-211 -1 -410 -5 -443 -10z"/>
<path d="M5170 3474 c-259 -70 -343 -397 -148 -580 97 -90 85 -88 563 -94 466
-6 453 -4 495 -73 35 -56 17 -139 -36 -174 -26 -17 -66 -18 -544 -23 l-515 -5
-3 -103 -3 -103 603 3 603 3 56 26 c72 34 134 96 168 168 22 47 26 70 26 146
0 80 -3 97 -29 148 -33 63 -93 125 -153 155 -70 36 -143 42 -534 42 l-378 0
-35 31 c-72 63 -63 170 17 219 31 19 55 20 540 20 l507 0 0 105 0 105 -572 -1
c-471 0 -583 -3 -628 -15z"/>
<path d="M7811 3479 c-65 -13 -126 -46 -175 -95 -167 -166 -121 -442 91 -550
l58 -29 427 -5 427 -5 35 -34 c62 -60 58 -155 -8 -206 l-33 -25 -514 -2 -514
-3 -3 -103 -3 -102 603 2 603 3 56 26 c69 33 129 91 166 161 25 47 28 64 28
148 0 84 -3 102 -28 151 -30 62 -93 126 -154 157 -70 36 -143 42 -536 42
l-379 0 -39 39 c-34 34 -39 44 -39 85 0 58 21 101 63 126 31 19 54 20 540 20
l507 0 0 105 0 105 -567 -1 c-313 -1 -588 -5 -612 -10z"/>
<path d="M4665 2033 c-788 -11 -1789 -69 -2590 -149 -392 -39 -788 -85 -782
-90 1 -2 142 3 312 11 1788 81 3874 97 5760 45 551 -15 1213 -39 1505 -54 135
-7 30 8 -330 48 -940 105 -1832 163 -2845 186 -396 9 -600 9 -1030 3z"/>
<path d="M1532 1358 l3 -153 33 -3 32 -3 0 155 0 156 -35 0 -36 0 3 -152z"/>
<path d="M1954 1497 c-2 -7 -3 -76 -2 -152 l3 -140 30 0 30 0 5 95 5 95 74
-85 c88 -101 98 -110 128 -110 l23 0 0 155 0 155 -35 0 -35 0 0 -90 c0 -49 -3
-90 -7 -89 -5 0 -43 41 -86 90 -59 67 -84 89 -103 89 -14 0 -27 -6 -30 -13z"/>
<path d="M2574 1495 c-13 -32 4 -45 55 -45 l50 0 3 -122 3 -123 35 0 35 0 3
123 3 122 55 0 c54 0 55 0 52 28 l-3 27 -143 3 c-120 2 -143 0 -148 -13z"/>
<path d="M3195 1497 c-3 -7 -4 -76 -3 -152 l3 -140 105 0 105 0 3 28 3 27 -75
0 -76 0 0 35 0 35 70 0 70 0 0 30 0 30 -70 0 -70 0 0 30 0 30 76 0 75 0 -3 28
-3 27 -103 3 c-78 2 -104 0 -107 -11z"/>
<path d="M3745 1498 c-3 -8 -4 -77 -3 -153 l3 -140 35 0 35 0 3 63 c3 53 6 62
22 62 20 0 53 -40 64 -77 4 -13 14 -30 22 -38 17 -17 74 -21 74 -5 0 14 -51
120 -62 126 -4 3 3 19 17 36 31 36 28 69 -10 107 -21 21 -36 25 -109 29 -68 4
-87 2 -91 -10z m152 -64 c10 -26 -11 -49 -46 -52 -30 -3 -31 -2 -31 32 0 34 2
36 35 36 24 0 38 -5 42 -16z"/>
<path d="M4324 1497 c-2 -7 -3 -76 -2 -152 l3 -140 33 -3 32 -3 0 96 c0 53 4
95 8 93 5 -1 42 -41 82 -88 86 -98 88 -100 118 -100 22 0 22 1 22 156 l0 155
-32 -3 -33 -3 -5 -89 -5 -89 -75 84 c-41 46 -79 87 -85 91 -16 12 -55 9 -61
-5z"/>
<path d="M5046 1478 c-66 -157 -105 -262 -100 -269 6 -11 45 -11 59 -1 6 4 16
19 22 35 12 25 16 27 78 27 66 0 66 0 81 -35 12 -31 19 -35 49 -35 22 0 35 5
34 13 0 6 -28 75 -63 152 l-62 140 -42 3 c-40 3 -43 1 -56 -30z m96 -145 c2
-15 -4 -18 -37 -18 -36 0 -40 3 -38 23 2 12 10 39 19 60 l16 37 19 -42 c10
-24 19 -51 21 -60z"/>
<path d="M5514 1495 c-13 -32 4 -45 55 -45 l50 0 3 -122 3 -123 35 0 35 0 3
122 3 122 52 3 c48 3 52 5 52 28 l0 25 -143 3 c-120 2 -143 0 -148 -13z"/>
<path d="M6134 1497 c-2 -7 -3 -76 -2 -152 l3 -140 33 -3 32 -3 0 155 0 156
-30 0 c-17 0 -33 -6 -36 -13z"/>
<path d="M6635 1496 c-16 -7 -43 -28 -60 -45 -27 -29 -30 -39 -30 -97 0 -64 1
-66 41 -104 30 -28 54 -40 87 -45 181 -27 282 164 142 270 -42 33 -133 43
-180 21z m125 -61 c17 -9 33 -28 40 -49 24 -72 -36 -136 -113 -122 -42 8 -66
33 -73 77 -12 82 69 134 146 94z"/>
<path d="M7214 1497 c-2 -7 -3 -76 -2 -152 l3 -140 33 -3 32 -3 0 90 c0 49 4
92 8 95 5 3 46 -38 91 -90 70 -81 86 -95 109 -92 l27 3 0 150 0 150 -35 0 -35
0 -5 -89 -5 -89 -64 74 c-35 41 -73 82 -84 92 -23 20 -65 23 -73 4z"/>
<path d="M7949 1493 c-20 -33 -117 -278 -112 -285 2 -5 18 -8 34 -8 25 0 33 6
45 35 14 35 15 35 78 35 63 0 65 -1 85 -35 16 -28 27 -35 51 -35 19 0 30 5 30
14 0 15 -108 263 -123 284 -14 19 -75 15 -88 -5z m86 -174 c-8 -12 -72 -12
-79 0 -3 5 4 33 16 62 l22 53 23 -53 c13 -29 21 -57 18 -62z"/>
<path d="M8484 1497 c-2 -7 -3 -76 -2 -152 l3 -140 110 0 110 0 3 27 3 27 -78
3 -78 3 -3 123 -3 122 -30 0 c-16 0 -32 -6 -35 -13z"/>
</g>
</svg>
